<svg width="24" height="24" viewBox="0 0 24 24" fill="none" xmlns="http://www.w3.org/2000/svg">
<path d="M3 0.5H21C22.3807 0.5 23.5 1.61929 23.5 3V21C23.5 22.3807 22.3807 23.5 21 23.5H3C1.61929 23.5 0.5 22.3807 0.5 21V3C0.5 1.61929 1.61929 0.5 3 0.5ZM12 5.5C11.3096 5.5 10.75 6.05964 10.75 6.75V10.75H6.75C6.05964 10.75 5.5 11.3096 5.5 12C5.5 12.6904 6.05964 13.25 6.75 13.25H10.75V17.25C10.75 17.9404 11.3096 18.5 12 18.5C12.6904 18.5 13.25 17.9404 13.25 17.25V13.25H17.25C17.9404 13.25 18.5 12.6904 18.5 12C18.5 11.3096 17.9404 10.75 17.25 10.75H13.25V6.75C13.25 6.05964 12.6904 5.5 12 5.5Z" fill="#004494" stroke="#F4F6F9" stroke-linejoin="round"/>
</svg>
