<svg width="48" height="50" viewBox="0 0 48 50" fill="none" xmlns="http://www.w3.org/2000/svg">
<path d="M6 7.33325C6 4.01954 8.68629 1.33325 12 1.33325H36C39.3137 1.33325 42 4.01954 42 7.33325V43.3333C42 46.647 39.3137 49.3333 36 49.3333H12C8.68629 49.3333 6 46.647 6 43.3333V7.33325ZM12 4.33325C10.3431 4.33325 9 5.6764 9 7.33325V19.3333H39V7.33325C39 5.6764 37.6569 4.33325 36 4.33325H12ZM39 22.3333H30V28.3333H39V22.3333ZM39 31.3333H30V37.3333H39V31.3333ZM39 40.3333H30V46.3333H36C37.6569 46.3333 39 44.9901 39 43.3333V40.3333ZM27 46.3333V40.3333H18V46.3333H27ZM15 46.3333V40.3333H9V43.3333C9 44.9901 10.3431 46.3333 12 46.3333H15ZM9 37.3333H15V31.3333H9V37.3333ZM9 28.3333H15V22.3333H9V28.3333ZM18 22.3333V28.3333H27V22.3333H18ZM27 31.3333H18V37.3333H27V31.3333Z" fill="white" stroke="white"/>
</svg>
