<svg width="25" height="28" viewBox="0 0 25 28" fill="none" xmlns="http://www.w3.org/2000/svg">
<path fill-rule="evenodd" clip-rule="evenodd" d="M0.256282 9.36872C-0.0854272 9.02701 -0.0854272 8.47299 0.256282 8.13128L7.25628 1.13128C7.59799 0.789572 8.15201 0.789572 8.49372 1.13128C8.83543 1.47299 8.83543 2.02701 8.49372 2.36872L2.98744 7.875H20.125C22.5412 7.875 24.5 9.83376 24.5 12.25V26.25C24.5 26.7332 24.1082 27.125 23.625 27.125C23.1418 27.125 22.75 26.7332 22.75 26.25V12.25C22.75 10.8003 21.5747 9.625 20.125 9.625H2.98744L8.49372 15.1313C8.83543 15.473 8.83543 16.027 8.49372 16.3687C8.15201 16.7104 7.59799 16.7104 7.25628 16.3687L0.256282 9.36872Z" fill="white"/>
</svg>
