<svg width="70" height="30" viewBox="0 0 70 30" fill="none" xmlns="http://www.w3.org/2000/svg">
<path d="M5.0157 14.3371C4.16143 14.7032 4.16143 15.2968 5.0157 15.6629L13.7657 19.4129C14.62 19.779 16.005 19.779 16.8593 19.4129C17.7136 19.0468 17.7136 18.4532 16.8593 18.0871L11.8436 15.9375L58.1564 15.9375L53.1407 18.0871C52.2864 18.4532 52.2864 19.0468 53.1407 19.4129C53.995 19.779 55.38 19.779 56.2343 19.4129L64.9843 15.6629C65.8386 15.2968 65.8386 14.7032 64.9843 14.3371L56.2343 10.5871C55.38 10.221 53.995 10.221 53.1407 10.5871C52.2864 10.9532 52.2864 11.5468 53.1407 11.9129L58.1564 14.0625L11.8436 14.0625L16.8593 11.9129C17.7136 11.5468 17.7136 10.9532 16.8593 10.5871C16.005 10.221 14.62 10.221 13.7657 10.5871L5.0157 14.3371Z" fill="#0056B3"/>
</svg>
