<svg width="48" height="49" viewBox="0 0 48 49" fill="none" xmlns="http://www.w3.org/2000/svg">
<path d="M29.4766 43.3889C29.2239 46.1921 26.869 48.3889 24 48.3889C21.131 48.3889 18.7761 46.1921 18.5234 43.3889H29.4766ZM24 1.38892C25.3807 1.38892 26.5 2.5082 26.5 3.88892C26.5 3.97276 26.4963 4.05552 26.4883 4.13696L26.4434 4.58716L26.8867 4.67603C33.5119 6.01409 38.5 11.8696 38.5 18.8889C38.5 20.243 38.7448 23.4212 39.3252 26.9338C39.9046 30.4402 40.8285 34.3422 42.2109 37.1125C42.6451 37.9825 43.1355 38.7634 43.6914 39.3889H4.30859C4.86451 38.7634 5.35492 37.9825 5.78906 37.1125C7.17149 34.3422 8.09539 30.4402 8.6748 26.9338C9.25526 23.4212 9.5 20.243 9.5 18.8889C9.5 11.8696 14.4881 6.01413 21.1133 4.67603L21.5566 4.58716L21.5117 4.13696C21.5037 4.05553 21.5 3.97276 21.5 3.88892C21.5 2.5082 22.6193 1.38892 24 1.38892ZM23.9014 6.15356L21.5098 6.63696C15.799 7.79031 11.5 12.8404 11.5 18.8889C11.5 20.7329 11.1013 25.4068 10.1338 30.0129C9.65388 32.2977 9.01483 34.66 8.17188 36.6975L7.88672 37.3889H40.1133L39.8281 36.6975C38.9852 34.66 38.3461 32.2977 37.8662 30.0129C36.8987 25.4068 36.5 20.7329 36.5 18.8889C36.5 12.8404 32.2011 7.79027 26.4902 6.63696L24.0986 6.15356L24 6.13403L23.9014 6.15356Z" fill="white" stroke="white"/>
</svg>
