<svg width="48" height="49" viewBox="0 0 48 49" fill="none" xmlns="http://www.w3.org/2000/svg">
<path d="M12.7617 44.6455C12.7734 44.6415 12.7852 44.6378 12.7969 44.6338C12.7852 44.6378 12.7734 44.6415 12.7617 44.6455ZM12.7617 44.6455C12.6547 44.6825 12.5457 44.7195 12.4346 44.7568C12.5457 44.7195 12.6547 44.6825 12.7617 44.6455ZM38.8037 39.127C38.4929 39.3632 38.1744 39.592 37.8486 39.8135C38.1744 39.592 38.493 39.3632 38.8037 39.127ZM38.8037 39.127C38.888 39.0628 38.9715 38.9978 39.0547 38.9326C38.9715 38.9978 38.888 39.0628 38.8037 39.127ZM6.26074 44.1064C6.11111 44.6177 6.24374 45.1702 6.60938 45.5576C6.97035 45.94 7.50462 46.1033 8.01758 45.9922C7.46033 46.1208 6.87607 46.2478 6.26367 46.3691L6.20312 46.3818C5.95889 46.43 5.71011 46.4768 5.45703 46.5234C5.55492 46.2617 5.65121 45.9945 5.74512 45.7227L5.74609 45.7217L5.75781 45.6875V45.6865C5.94473 45.1435 6.12277 44.5794 6.29004 44.002C6.28 44.0366 6.27087 44.0719 6.26074 44.1064ZM8.42969 45.8955C8.32714 45.92 8.22363 45.9444 8.11914 45.9688C8.22363 45.9444 8.32714 45.92 8.42969 45.8955ZM9.27246 45.6865C9.1684 45.7132 9.0633 45.7401 8.95703 45.7666C9.0633 45.7401 9.1684 45.7132 9.27246 45.6865ZM10.127 45.459C9.99413 45.4956 9.8595 45.5329 9.72266 45.5693C9.8595 45.5329 9.99413 45.4956 10.127 45.459ZM10.8174 45.2637C10.6946 45.2996 10.5699 45.3353 10.4434 45.3711C10.5699 45.3353 10.6946 45.2996 10.8174 45.2637ZM11.4951 45.0605C11.4071 45.0878 11.3177 45.1143 11.2275 45.1416C11.3177 45.1143 11.4071 45.0878 11.4951 45.0605ZM12.1855 44.8398C12.0793 44.8748 11.9711 44.9092 11.8613 44.9443C11.9711 44.9092 12.0793 44.8748 12.1855 44.8398ZM14.959 43.7988C14.7551 43.8862 14.5372 43.9788 14.3037 44.0723C14.5373 43.9788 14.7551 43.8862 14.959 43.7988ZM6.53613 43.1084C6.47922 43.3258 6.41996 43.542 6.35938 43.7568C6.41989 43.5423 6.47915 43.3261 6.53613 43.1084ZM28.8779 43.4854C28.6871 43.5218 28.4955 43.5567 28.3027 43.5889C28.4955 43.5567 28.6871 43.5218 28.8779 43.4854ZM15.7012 43.4688C15.6207 43.5064 15.5356 43.5424 15.4482 43.582C15.5356 43.5424 15.6207 43.5064 15.7012 43.4688ZM30.3223 43.166C30.0792 43.2274 29.8345 43.2854 29.5879 43.3398C29.8345 43.2854 30.0792 43.2274 30.3223 43.166ZM6.76074 42.2012C6.70296 42.4489 6.64212 42.6958 6.5791 42.9414C6.64204 42.6961 6.70289 42.4492 6.76074 42.2012ZM33.1172 42.2803C32.9715 42.3363 32.8251 42.3909 32.6777 42.4443C32.8251 42.3909 32.9715 42.3363 33.1172 42.2803ZM6.97266 41.2256C6.91628 41.5053 6.85671 41.7849 6.79297 42.0635C6.85663 41.7853 6.9162 41.5057 6.97266 41.2256ZM34.3789 41.7529C34.3605 41.7613 34.3427 41.771 34.3242 41.7793C34.3427 41.771 34.3605 41.7613 34.3789 41.7529ZM7.13086 40.3779C7.09711 40.5734 7.06118 40.7691 7.02344 40.9648C7.06115 40.7693 7.09708 40.5736 7.13086 40.3779ZM7.34277 38.9326C7.33254 39.0191 7.32171 39.1056 7.31055 39.1924C7.32171 39.1057 7.33254 39.0191 7.34277 38.9326ZM5.19238 35.1465C5.15396 35.0959 5.11601 35.045 5.07812 34.9941C5.11601 35.045 5.15396 35.0959 5.19238 35.1465ZM43.8232 33.6582C43.3792 34.3743 42.8845 35.0641 42.3438 35.7246C42.8852 35.0631 43.3807 34.3724 43.8252 33.6553L43.8232 33.6582ZM45.8076 29.2422C45.4484 30.4655 44.9548 31.6457 44.3408 32.7695C44.9548 31.6456 45.4484 30.4653 45.8076 29.2422ZM46.21 27.5605C46.1533 27.8636 46.0883 28.1643 46.0156 28.4629C46.0883 28.1643 46.1533 27.8635 46.21 27.5605ZM12 22.9443C12.8284 22.9443 13.5 23.6159 13.5 24.4443C13.5 25.2728 12.8284 25.9443 12 25.9443C11.1716 25.9443 10.5 25.2728 10.5 24.4443C10.5 23.6159 11.1716 22.9443 12 22.9443ZM24 22.9443C24.8284 22.9443 25.5 23.6159 25.5 24.4443C25.5 25.2728 24.8284 25.9443 24 25.9443C23.1716 25.9443 22.5 25.2728 22.5 24.4443C22.5 23.6159 23.1716 22.9443 24 22.9443ZM36 22.9443C36.8284 22.9443 37.5 23.6159 37.5 24.4443C37.5 25.2728 36.8284 25.9443 36 25.9443C35.1716 25.9443 34.5 25.2728 34.5 24.4443C34.5 23.6159 35.1716 22.9443 36 22.9443ZM46.4717 25.4316C46.4476 25.8456 46.4064 26.2564 46.3525 26.6641C46.4064 26.2561 46.4476 25.845 46.4717 25.4307V25.4316ZM1.70801 21.8066C1.59702 22.511 1.52793 23.2258 1.50684 23.9492C1.52792 23.2257 1.59707 22.5109 1.70801 21.8066ZM46.292 21.8066C46.4029 22.5109 46.4721 23.2257 46.4932 23.9492C46.4721 23.2258 46.403 22.511 46.292 21.8066ZM2.03809 20.2119C1.97303 20.4649 1.91291 20.7193 1.85938 20.9756C1.91289 20.7193 1.97304 20.4649 2.03809 20.2119ZM45.9619 20.2119C46.027 20.4649 46.0871 20.7193 46.1406 20.9756C46.0871 20.7193 46.027 20.4649 45.9619 20.2119ZM3.23926 16.9346C2.86819 17.7028 2.55341 18.4951 2.29688 19.3066C2.50528 18.6472 2.75163 18.0004 3.03613 17.3691L3.23926 16.9346ZM44.9639 17.3691C45.2484 18.0004 45.4947 18.6472 45.7031 19.3066C45.4466 18.4951 45.1318 17.7028 44.7607 16.9346L44.9639 17.3691ZM3.9248 15.6484C3.76082 15.9289 3.60459 16.2132 3.45605 16.501L3.24121 16.9307C3.45159 16.4954 3.67967 16.0677 3.9248 15.6484ZM44.0742 15.6465C44.3198 16.0664 44.5481 16.4947 44.7588 16.9307L44.5439 16.501C44.3951 16.2126 44.2386 15.9276 44.0742 15.6465ZM5.81055 12.9785C5.48546 13.366 5.17678 13.7641 4.88477 14.1719C5.17681 13.7641 5.48544 13.366 5.81055 12.9785ZM42.1895 12.9785C42.5147 13.3661 42.8241 13.764 43.1162 14.1719C42.8241 13.764 42.5147 13.3662 42.1895 12.9785ZM13.667 7.11328C13.7292 7.08535 13.792 7.05869 13.8545 7.03125C13.792 7.0587 13.7292 7.08535 13.667 7.11328ZM34.1455 7.03125C34.208 7.05869 34.2708 7.08535 34.333 7.11328C34.2708 7.08535 34.208 7.0587 34.1455 7.03125ZM15.4492 6.39844C15.2729 6.46126 15.0978 6.52622 14.9238 6.59277C15.0978 6.52622 15.2729 6.46126 15.4492 6.39844ZM32.5508 6.39844C32.7271 6.46126 32.9022 6.52622 33.0762 6.59277C32.9022 6.52622 32.7271 6.46126 32.5508 6.39844ZM18.4111 5.54785C18.1646 5.60229 17.9198 5.66028 17.6768 5.72168C17.9198 5.66027 18.1646 5.60229 18.4111 5.54785ZM29.5879 5.54785C29.8344 5.60229 30.0792 5.66028 30.3223 5.72168C30.0792 5.66029 29.8345 5.60228 29.5879 5.54785ZM19.7256 5.29492C19.523 5.32852 19.3215 5.3641 19.1211 5.40234C19.3215 5.36409 19.5231 5.32852 19.7256 5.29492ZM28.2734 5.29492C28.476 5.32852 28.6775 5.3641 28.8779 5.40234C28.6775 5.36411 28.476 5.32851 28.2734 5.29492Z" fill="white" stroke="white" stroke-width="3" stroke-linecap="round" stroke-linejoin="round"/>
</svg>
