<svg width="48" height="48" viewBox="0 0 48 48" fill="none" xmlns="http://www.w3.org/2000/svg">
<path d="M24 12C24.8284 12 25.5 12.6716 25.5 13.5V18C25.5 18.8284 24.8284 19.5 24 19.5C23.1716 19.5 22.5 18.8284 22.5 18V13.5C22.5 12.6716 23.1716 12 24 12Z" fill="white"/>
<path d="M11.1967 17.1967C11.7825 16.6109 12.7322 16.6109 13.318 17.1967L16.0607 19.9393C16.6464 20.5251 16.6464 21.4749 16.0607 22.0607C15.4749 22.6464 14.5251 22.6464 13.9393 22.0607L11.1967 19.318C10.6109 18.7322 10.6109 17.7825 11.1967 17.1967Z" fill="white"/>
<path d="M6 30C6 29.1716 6.67157 28.5 7.5 28.5H12.2574C13.0858 28.5 13.7574 29.1716 13.7574 30C13.7574 30.8284 13.0858 31.5 12.2574 31.5H7.5C6.67157 31.5 6 30.8284 6 30Z" fill="white"/>
<path d="M34.5 30C34.5 29.1716 35.1716 28.5 36 28.5H40.5C41.3284 28.5 42 29.1716 42 30C42 30.8284 41.3284 31.5 40.5 31.5H36C35.1716 31.5 34.5 30.8284 34.5 30Z" fill="white"/>
<path d="M36.763 17.2627C36.3326 16.8322 35.6433 16.8055 35.1808 17.2013L22.6418 27.9317C21.4334 28.9658 21.3619 30.81 22.4865 31.9346C23.637 33.0851 25.5324 32.9796 26.548 31.7083L36.8495 18.8146C37.2201 18.3507 37.1828 17.6825 36.763 17.2627Z" fill="white"/>
<path fill-rule="evenodd" clip-rule="evenodd" d="M0 30C0 16.7452 10.7452 6 24 6C37.2548 6 48 16.7452 48 30C48 32.7963 47.5211 35.484 46.6397 37.9836C45.314 41.7431 41.1069 42.7902 37.8441 41.7329C33.9276 40.4637 28.4223 39 24 39C19.5777 39 14.0724 40.4637 10.1559 41.7329C6.89305 42.7902 2.68602 41.7431 1.36029 37.9836C0.478859 35.484 0 32.7963 0 30ZM24 9C12.402 9 3 18.402 3 30C3 32.4518 3.41955 34.8024 4.18953 36.9859C4.79863 38.7132 6.95937 39.6152 9.23108 38.879C13.1883 37.5966 19.0752 36 24 36C28.9248 36 34.8116 37.5966 38.7689 38.879C41.0406 39.6152 43.2014 38.7132 43.8105 36.9859C44.5804 34.8024 45 32.4518 45 30C45 18.402 35.598 9 24 9Z" fill="white"/>
</svg>
