<svg width="30" height="30" viewBox="0 0 30 30" fill="none" xmlns="http://www.w3.org/2000/svg">
<path d="M20.2319 24.2094L17.2053 21.1828C16.5161 21.4286 15.7737 21.5625 15 21.5625C11.3756 21.5625 8.4375 18.6244 8.4375 15C8.4375 14.2263 8.57138 13.4839 8.81724 12.7947L4.95209 8.92955C1.76009 11.7732 0 15 0 15C0 15 5.625 25.3125 15 25.3125C16.9039 25.3125 18.6531 24.8872 20.2319 24.2094Z" fill="#0056B3"/>
<path d="M9.76813 5.79064C11.347 5.1128 13.0962 4.68751 15 4.68751C24.375 4.68751 30 15 30 15C30 15 28.2399 18.2268 25.0479 21.0704L21.1828 17.2053C21.4286 16.5161 21.5625 15.7737 21.5625 15C21.5625 11.3756 18.6244 8.43751 15 8.43751C14.2263 8.43751 13.484 8.57139 12.7947 8.81724L9.76813 5.79064Z" fill="#0056B3"/>
<path d="M10.3591 14.3365C10.3284 14.5533 10.3125 14.7748 10.3125 15C10.3125 17.5888 12.4112 19.6875 15 19.6875C15.2252 19.6875 15.4467 19.6716 15.6635 19.6409L10.3591 14.3365Z" fill="#0056B3"/>
<path d="M19.6409 15.6634L14.3366 10.3591C14.5533 10.3284 14.7748 10.3125 15 10.3125C17.5888 10.3125 19.6875 12.4112 19.6875 15C19.6875 15.2252 19.6716 15.4467 19.6409 15.6634Z" fill="#0056B3"/>
<path d="M25.5871 26.9129L3.08709 4.41292L4.41291 3.0871L26.9129 25.5871L25.5871 26.9129Z" fill="#0056B3"/>
</svg>
