<svg width="48" height="49" viewBox="0 0 48 49" fill="none" xmlns="http://www.w3.org/2000/svg">
<path d="M21.2053 2.84819C21.9333 -0.0604036 26.0667 -0.0603972 26.7947 2.8482L27.0093 3.70539C27.5581 5.89808 30.3029 6.63356 31.8746 5.00904L32.489 4.37396C34.5737 2.21904 38.1534 4.28578 37.3296 7.16869L37.0868 8.01832C36.4657 10.1917 38.4751 12.201 40.6484 11.58L41.4981 11.3372C44.381 10.5133 46.4477 14.093 44.2928 16.1778L43.6577 16.7922C42.0332 18.3638 42.7687 21.1087 44.9614 21.6575L45.8186 21.872C48.7272 22.6 48.7271 26.7335 45.8186 27.4615L44.9614 27.676C42.7687 28.2248 42.0332 30.9697 43.6577 32.5413L44.2928 33.1557C46.4477 35.2405 44.381 38.8202 41.4981 37.9963L40.6484 37.7535C38.4751 37.1325 36.4657 39.1419 37.0868 41.3152L37.3296 42.1648C38.1534 45.0477 34.5737 47.1145 32.489 44.9595L31.8746 44.3245C30.3029 42.6999 27.5581 43.4354 27.0093 45.6281L26.7947 46.4853C26.0667 49.3939 21.9333 49.3939 21.2053 46.4853L20.9907 45.6281C20.4419 43.4354 17.6971 42.6999 16.1254 44.3245L15.511 44.9595C13.4263 47.1145 9.84658 45.0477 10.6704 42.1648L10.9132 41.3152C11.5343 39.1418 9.5249 37.1325 7.35157 37.7535L6.50194 37.9963C3.61903 38.8202 1.5523 35.2405 3.70721 33.1557L4.3423 32.5413C5.96682 30.9697 5.23133 28.2248 3.03864 27.676L2.18144 27.4615C-0.727152 26.7335 -0.727145 22.6 2.18145 21.872L3.03865 21.6575C5.23134 21.1087 5.96681 18.3638 4.34229 16.7922L3.70721 16.1778C1.55229 14.093 3.61903 10.5133 6.50195 11.3372L7.35157 11.58C9.52491 12.201 11.5343 10.1916 10.9132 8.01832L10.6704 7.16869C9.84658 4.28578 13.4263 2.21905 15.511 4.37396L16.1254 5.00904C17.6971 6.63356 20.4419 5.89808 20.9907 3.70539L21.2053 2.84819ZM38.9189 26.1661H24.7496L16.2474 37.5024C18.5096 38.8717 21.1627 39.6598 24 39.6598C31.7744 39.6598 38.1667 33.7425 38.9189 26.1661ZM38.9189 23.1675C38.1667 15.5911 31.7744 9.67387 24 9.67387C21.1627 9.67387 18.5096 10.462 16.2474 11.8312L24.7496 23.1675H38.9189ZM15.1438 12.5678C15.0562 12.632 14.9692 12.6972 14.8831 12.7633L15.1438 12.5678ZM13.8498 13.6321C10.8726 16.3721 9.00705 20.3016 9.00705 24.6668C9.00705 29.032 10.8726 32.9615 13.8498 35.7015L22.1259 24.6668L13.8498 13.6321ZM14.883 36.5703C14.9692 36.6364 15.0562 36.7016 15.1439 36.7659L14.883 36.5703Z" fill="white"/>
</svg>
