<svg width="48" height="49" viewBox="0 0 48 49" fill="none" xmlns="http://www.w3.org/2000/svg">
<mask id="path-1-inside-1_591_429" fill="white">
<path d="M7.5 12.1111C8.32843 12.1111 9 11.4395 9 10.6111C9 9.78266 8.32843 9.11108 7.5 9.11108C6.67157 9.11108 6 9.78266 6 10.6111C6 11.4395 6.67157 12.1111 7.5 12.1111Z"/>
<path d="M13.5 10.6111C13.5 11.4395 12.8284 12.1111 12 12.1111C11.1716 12.1111 10.5 11.4395 10.5 10.6111C10.5 9.78266 11.1716 9.11108 12 9.11108C12.8284 9.11108 13.5 9.78266 13.5 10.6111Z"/>
<path d="M16.5 12.1111C17.3284 12.1111 18 11.4395 18 10.6111C18 9.78266 17.3284 9.11108 16.5 9.11108C15.6716 9.11108 15 9.78266 15 10.6111C15 11.4395 15.6716 12.1111 16.5 12.1111Z"/>
<path d="M6 3.11108C2.68629 3.11108 0 5.79738 0 9.11108V39.1111C0 42.4248 2.68629 45.1111 6 45.1111H42C45.3137 45.1111 48 42.4248 48 39.1111V9.11108C48 5.79738 45.3137 3.11108 42 3.11108H6ZM45 9.11108V15.1111H3V9.11108C3 7.45423 4.34315 6.11108 6 6.11108H42C43.6569 6.11108 45 7.45423 45 9.11108ZM6 42.1111C4.34315 42.1111 3 40.7679 3 39.1111V18.1111H45V39.1111C45 40.7679 43.6569 42.1111 42 42.1111H6Z"/>
</mask>
<path d="M7.5 12.1111C8.32843 12.1111 9 11.4395 9 10.6111C9 9.78266 8.32843 9.11108 7.5 9.11108C6.67157 9.11108 6 9.78266 6 10.6111C6 11.4395 6.67157 12.1111 7.5 12.1111Z" fill="white"/>
<path d="M13.5 10.6111C13.5 11.4395 12.8284 12.1111 12 12.1111C11.1716 12.1111 10.5 11.4395 10.5 10.6111C10.5 9.78266 11.1716 9.11108 12 9.11108C12.8284 9.11108 13.5 9.78266 13.5 10.6111Z" fill="white"/>
<path d="M16.5 12.1111C17.3284 12.1111 18 11.4395 18 10.6111C18 9.78266 17.3284 9.11108 16.5 9.11108C15.6716 9.11108 15 9.78266 15 10.6111C15 11.4395 15.6716 12.1111 16.5 12.1111Z" fill="white"/>
<path d="M6 3.11108C2.68629 3.11108 0 5.79738 0 9.11108V39.1111C0 42.4248 2.68629 45.1111 6 45.1111H42C45.3137 45.1111 48 42.4248 48 39.1111V9.11108C48 5.79738 45.3137 3.11108 42 3.11108H6ZM45 9.11108V15.1111H3V9.11108C3 7.45423 4.34315 6.11108 6 6.11108H42C43.6569 6.11108 45 7.45423 45 9.11108ZM6 42.1111C4.34315 42.1111 3 40.7679 3 39.1111V18.1111H45V39.1111C45 40.7679 43.6569 42.1111 42 42.1111H6Z" fill="white"/>
<path d="M3 15.1111H0V18.1111H3V15.1111ZM45 15.1111V18.1111H48V15.1111H45ZM3 18.1111V15.1111H0V18.1111H3ZM45 18.1111H48V15.1111H45V18.1111ZM42 6.11108V9.11108H45H48C48 5.79737 45.3137 3.11108 42 3.11108V6.11108ZM6 6.11108V9.11108H42V6.11108V3.11108H6V6.11108ZM3 9.11108H6V6.11108V3.11108C2.68629 3.11108 0 5.79738 0 9.11108H3ZM3 15.1111H6V9.11108H3H0V15.1111H3ZM45 15.1111V12.1111H3V15.1111V18.1111H45V15.1111ZM45 9.11108H42V15.1111H45H48V9.11108H45ZM3 39.1111H0C0 42.4248 2.68629 45.1111 6 45.1111V42.1111V39.1111H3ZM3 18.1111H0V39.1111H3H6V18.1111H3ZM45 18.1111V15.1111H3V18.1111V21.1111H45V18.1111ZM45 39.1111H48V18.1111H45H42V39.1111H45ZM42 42.1111V45.1111C45.3137 45.1111 48 42.4248 48 39.1111H45H42V42.1111ZM6 42.1111V45.1111H42V42.1111V39.1111H6V42.1111ZM0 9.11108H3C3 7.45423 4.34315 6.11108 6 6.11108V3.11108V0.111084C1.02944 0.111084 -3 4.14052 -3 9.11108H0ZM0 39.1111H3V9.11108H0H-3V39.1111H0ZM6 45.1111V42.1111C4.34315 42.1111 3 40.7679 3 39.1111H0H-3C-3 44.0816 1.02944 48.1111 6 48.1111V45.1111ZM42 45.1111V42.1111H6V45.1111V48.1111H42V45.1111ZM48 39.1111H45C45 40.7679 43.6569 42.1111 42 42.1111V45.1111V48.1111C46.9706 48.1111 51 44.0816 51 39.1111H48ZM48 9.11108H45V39.1111H48H51V9.11108H48ZM42 3.11108V6.11108C43.6569 6.11108 45 7.45423 45 9.11108H48H51C51 4.14052 46.9706 0.111084 42 0.111084V3.11108ZM6 3.11108V6.11108H42V3.11108V0.111084H6V3.11108ZM9 10.6111H6C6 9.78266 6.67157 9.11108 7.5 9.11108V12.1111V15.1111C9.98528 15.1111 12 13.0964 12 10.6111H9ZM7.5 9.11108V12.1111C6.67157 12.1111 6 11.4395 6 10.6111H9H12C12 8.1258 9.98528 6.11108 7.5 6.11108V9.11108ZM6 10.6111H9C9 11.4395 8.32843 12.1111 7.5 12.1111V9.11108V6.11108C5.01472 6.11108 3 8.1258 3 10.6111H6ZM7.5 12.1111V9.11108C8.32843 9.11108 9 9.78266 9 10.6111H6H3C3 13.0964 5.01472 15.1111 7.5 15.1111V12.1111ZM12 12.1111V15.1111C14.4853 15.1111 16.5 13.0964 16.5 10.6111H13.5H10.5C10.5 9.78266 11.1716 9.11108 12 9.11108V12.1111ZM10.5 10.6111H7.5C7.5 13.0964 9.51472 15.1111 12 15.1111V12.1111V9.11108C12.8284 9.11108 13.5 9.78266 13.5 10.6111H10.5ZM12 9.11108V6.11108C9.51472 6.11108 7.5 8.1258 7.5 10.6111H10.5H13.5C13.5 11.4395 12.8284 12.1111 12 12.1111V9.11108ZM13.5 10.6111H16.5C16.5 8.1258 14.4853 6.11108 12 6.11108V9.11108V12.1111C11.1716 12.1111 10.5 11.4395 10.5 10.6111H13.5ZM18 10.6111H15C15 9.78266 15.6716 9.11108 16.5 9.11108V12.1111V15.1111C18.9853 15.1111 21 13.0964 21 10.6111H18ZM16.5 9.11108V12.1111C15.6716 12.1111 15 11.4395 15 10.6111H18H21C21 8.1258 18.9853 6.11108 16.5 6.11108V9.11108ZM15 10.6111H18C18 11.4395 17.3284 12.1111 16.5 12.1111V9.11108V6.11108C14.0147 6.11108 12 8.1258 12 10.6111H15ZM16.5 12.1111V9.11108C17.3284 9.11108 18 9.78266 18 10.6111H15H12C12 13.0964 14.0147 15.1111 16.5 15.1111V12.1111Z" fill="white" mask="url(#path-1-inside-1_591_429)"/>
</svg>
