<svg width="30" height="22" viewBox="0 0 30 22" fill="none" xmlns="http://www.w3.org/2000/svg">
<path d="M19.6875 11C19.6875 13.5888 17.5888 15.6875 15 15.6875C12.4112 15.6875 10.3125 13.5888 10.3125 11C10.3125 8.41116 12.4112 6.3125 15 6.3125C17.5888 6.3125 19.6875 8.41116 19.6875 11Z" fill="#0056B3"/>
<path d="M0 11C0 11 5.625 0.6875 15 0.6875C24.375 0.6875 30 11 30 11C30 11 24.375 21.3125 15 21.3125C5.625 21.3125 0 11 0 11ZM15 17.5625C18.6244 17.5625 21.5625 14.6244 21.5625 11C21.5625 7.37563 18.6244 4.4375 15 4.4375C11.3756 4.4375 8.4375 7.37563 8.4375 11C8.4375 14.6244 11.3756 17.5625 15 17.5625Z" fill="#0056B3"/>
</svg>
