<svg width="50" height="50" viewBox="0 0 50 50" fill="none" xmlns="http://www.w3.org/2000/svg">
<path d="M25.5571 4.56065C25.1995 4.41761 24.8005 4.41761 24.4429 4.56065L6.53887 11.7223L25 19.1067L43.4611 11.7223L25.5571 4.56065ZM46 13.9378L26.5 21.7378V45.5067L46 37.7067V13.9378ZM23.5 45.5067V21.7378L4 13.9378V37.7067L23.5 45.5067ZM23.3287 1.77522C24.4016 1.34608 25.5984 1.34608 26.6713 1.77522L48.0571 10.3296C48.6266 10.5574 49 11.1089 49 11.7223V37.7067C49 38.9334 48.2532 40.0366 47.1142 40.4921L25.5571 49.115C25.1995 49.258 24.8005 49.258 24.4429 49.115L2.88583 40.4921C1.74685 40.0366 1 38.9334 1 37.7067V11.7223C1 11.1089 1.37343 10.5574 1.94291 10.3296L23.3287 1.77522Z" fill="white" stroke="white"/>
</svg>
