<svg width="48" height="48" viewBox="0 0 48 48" fill="none" xmlns="http://www.w3.org/2000/svg">
<g opacity="0.8">
<path d="M24 45C12.402 45 3 35.598 3 24C3 12.402 12.402 3 24 3C35.598 3 45 12.402 45 24C45 35.598 35.598 45 24 45ZM24 48C37.2548 48 48 37.2548 48 24C48 10.7452 37.2548 0 24 0C10.7452 0 0 10.7452 0 24C0 37.2548 10.7452 48 24 48Z" fill="white"/>
<path d="M15.7653 17.3584C15.7426 17.7671 16.0797 18.0981 16.489 18.0981H18.9625C19.3767 18.0981 19.706 17.7604 19.7617 17.3499C20.0285 15.3815 21.3795 13.9468 23.7877 13.9468C25.8443 13.9468 27.7296 14.9751 27.7296 17.4507C27.7296 19.355 26.606 20.231 24.835 21.564C22.8165 23.0303 21.2169 24.7441 21.3311 27.5244L21.34 28.1748C21.3456 28.585 21.6797 28.9146 22.09 28.9146H24.523C24.9372 28.9146 25.273 28.5788 25.273 28.1646V27.8481C25.273 25.6963 26.0919 25.0679 28.3008 23.3921C30.129 22.002 32.0333 20.4595 32.0333 17.2222C32.0333 12.6899 28.2056 10.5 24.0162 10.5C20.2149 10.5 16.0489 12.2718 15.7653 17.3584ZM20.4361 34.6465C20.4361 36.2461 21.712 37.4268 23.4639 37.4268C25.2921 37.4268 26.5489 36.2461 26.5489 34.6465C26.5489 32.9897 25.2921 31.8281 23.4639 31.8281C21.712 31.8281 20.4361 32.9897 20.4361 34.6465Z" fill="white"/>
</g>
</svg>
