<svg width="29" height="29" viewBox="0 0 29 29" fill="none" xmlns="http://www.w3.org/2000/svg">
<path d="M21.0488 18.7362C22.4326 16.8522 23.25 14.5262 23.25 12.0094C23.25 5.72716 18.1572 0.634399 11.875 0.634399C5.59276 0.634399 0.5 5.72716 0.5 12.0094C0.5 18.2916 5.59276 23.3844 11.875 23.3844C14.3925 23.3844 16.719 22.5666 18.6033 21.1821L18.6018 21.1832C18.6534 21.2532 18.7109 21.3202 18.7743 21.3835L25.5126 28.1218C26.196 28.8053 27.304 28.8053 27.9874 28.1218C28.6709 27.4384 28.6709 26.3304 27.9874 25.647L21.2491 18.9087C21.1858 18.8453 21.1188 18.7878 21.0488 18.7362ZM21.5 12.0094C21.5 17.3251 17.1907 21.6344 11.875 21.6344C6.55926 21.6344 2.25 17.3251 2.25 12.0094C2.25 6.69366 6.55926 2.3844 11.875 2.3844C17.1907 2.3844 21.5 6.69366 21.5 12.0094Z" fill="white"/>
</svg>
