<svg width="48" height="49" viewBox="0 0 48 49" fill="none" xmlns="http://www.w3.org/2000/svg">
<path d="M8.59834 45.3301C8.36494 46.6605 9.67764 47.7018 10.837 47.106L24.0046 40.3381L37.1723 47.106C38.3316 47.7018 39.6443 46.6605 39.4109 45.3301L36.9218 31.1416L47.4888 21.0717C48.4763 20.1306 47.9651 18.4099 46.6421 18.222L31.9467 16.1344L25.3943 3.15475C24.8041 1.98553 23.2052 1.98553 22.6149 3.15475L16.0626 16.1344L1.36715 18.222C0.0441868 18.4099 -0.467014 20.1306 0.520528 21.0717L11.0875 31.1416L8.59834 45.3301ZM23.3121 37.0257L12.2549 42.7088L14.3377 30.8369C14.4358 30.2773 14.2512 29.7042 13.8494 29.3213L5.1289 21.011L17.2858 19.284C17.7884 19.2126 18.2272 18.8917 18.4643 18.4221L24.0046 7.44706L29.545 18.4221C29.7821 18.8917 30.2209 19.2126 30.7235 19.284L42.8804 21.011L34.1599 29.3213C33.758 29.7042 33.5734 30.2773 33.6716 30.8369L35.7544 42.7088L24.6971 37.0257C24.2603 36.8012 23.7489 36.8012 23.3121 37.0257Z" fill="white"/>
</svg>
