<svg width="48" height="49" viewBox="0 0 48 49" fill="none" xmlns="http://www.w3.org/2000/svg">
<path d="M18.5208 4.0513C19.4576 1.95826 21.5585 0.5 24 0.5C26.4415 0.5 28.5424 1.95826 29.4792 4.05131C31.337 2.7071 33.8856 2.49465 36 3.7154C38.1144 4.93614 39.2047 7.24948 38.9695 9.53052C41.2506 9.29523 43.564 10.3855 44.7848 12.5C46.0056 14.6144 45.7931 17.163 44.4488 19.0208C46.5418 19.9577 48 22.0586 48 24.5C48 26.9415 46.5418 29.0424 44.4487 29.9792C45.7931 31.837 46.0056 34.3857 44.7848 36.5002C43.564 38.6146 41.2506 39.7049 38.9695 39.4696C39.2047 41.7506 38.1144 44.0639 36 45.2846C33.8856 46.5053 31.3371 46.2929 29.4792 44.9487C28.5424 47.0417 26.4415 48.5 24 48.5C21.5585 48.5 19.4576 47.0417 18.5208 44.9487C16.6629 46.2929 14.1144 46.5054 12 45.2846C9.88558 44.0639 8.79529 41.7505 9.03051 39.4695C6.74941 39.7047 4.43599 38.6144 3.21521 36.5C1.99446 34.3856 2.20692 31.837 3.55117 29.9792C1.4582 29.0423 0 26.9414 0 24.5C0 22.0585 1.45825 19.9576 3.55128 19.0208C2.20693 17.1629 1.99442 14.6143 3.21521 12.4998C4.43599 10.3854 6.74942 9.29505 9.03051 9.53033C8.79538 7.24935 9.88568 4.93611 12 3.7154C14.1144 2.49465 16.663 2.70709 18.5208 4.0513ZM24 3.5C22.3431 3.5 21 4.84309 21 6.49994C21 6.49994 21.0008 6.53277 21.0059 6.59208C21.0117 6.65869 21.0218 6.74813 21.038 6.86293C21.0707 7.09466 21.1228 7.3904 21.1968 7.75158C21.3449 8.47479 21.5637 9.3771 21.8375 10.4112C22.3843 12.4761 23.1202 14.9518 23.8653 17.3539L24 17.7869L24.1347 17.3539C24.8798 14.9518 25.6157 12.4761 26.1625 10.4112C26.4363 9.3771 26.6551 8.47479 26.8032 7.75158C26.8772 7.3904 26.9293 7.09466 26.962 6.86293C26.9782 6.74813 26.9883 6.65869 26.9941 6.59208C26.9992 6.53265 27 6.5 27 6.5C27 4.84315 25.6569 3.5 24 3.5ZM6 27.5C6 27.5 6.03265 27.4992 6.09208 27.494C6.15869 27.4883 6.24813 27.4782 6.36293 27.462C6.59466 27.4293 6.8904 27.3772 7.25158 27.3032C7.97479 27.1551 8.8771 26.9363 9.91123 26.6625C11.9761 26.1157 14.4518 25.3798 16.8539 24.6347L17.2869 24.5L16.8539 24.3653C14.4518 23.6202 11.9761 22.8843 9.91123 22.3375C8.8771 22.0637 7.97479 21.8449 7.25158 21.6968C6.8904 21.6228 6.59466 21.5707 6.36293 21.538C6.24813 21.5218 6.15869 21.5117 6.09208 21.5059C6.03277 21.5008 5.99949 21.5 5.99949 21.5C4.34264 21.5 3 22.8431 3 24.5C3 26.1569 4.34315 27.5 6 27.5ZM27 42.5C27 42.5 26.9992 42.4674 26.9941 42.4079C26.9883 42.3413 26.9782 42.2519 26.962 42.1371C26.9293 41.9053 26.8772 41.6096 26.8032 41.2484C26.6551 40.5252 26.4363 39.6229 26.1625 38.5888C25.6157 36.5239 24.8798 34.0482 24.1347 31.6461L24 31.2131L23.8653 31.6461C23.1202 34.0482 22.3843 36.5239 21.8375 38.5888C21.5637 39.6229 21.3449 40.5252 21.1968 41.2484C21.1228 41.6096 21.0707 41.9053 21.038 42.1371C21.0218 42.2519 21.0117 42.3413 21.0059 42.4079C21.0008 42.4672 21 42.5005 21 42.5005C21 44.1574 22.3431 45.5 24 45.5C25.6569 45.5 27 44.1569 27 42.5ZM9.91137 36.0981C9.91137 36.0981 9.93929 36.081 9.98814 36.0469C10.0429 36.0086 10.1154 35.9551 10.2067 35.8837C10.391 35.7395 10.6211 35.5466 10.8969 35.3019C11.4491 34.8119 12.1212 34.1714 12.8798 33.4171C14.3946 31.9112 16.1707 30.036 17.8784 28.1897L18.1861 27.8565L17.7437 27.9564C15.2909 28.5122 12.779 29.1128 10.7174 29.6716C9.68484 29.9515 8.79405 30.2132 8.09365 30.4465C7.74385 30.563 7.46169 30.6658 7.24466 30.7533C7.13715 30.7967 7.05466 30.8327 6.99409 30.861C6.94055 30.886 6.91093 30.9022 6.91093 30.9022C5.47605 31.7306 4.98486 33.5651 5.81329 35C6.64172 36.4349 8.47649 36.9265 9.91137 36.0981ZM13.5 42.6865C14.9349 43.515 16.7696 43.0233 17.5981 41.5884C17.5981 41.5884 17.6139 41.5595 17.639 41.5057C17.6672 41.4452 17.7033 41.3627 17.7466 41.2552C17.8342 41.0381 17.937 40.756 18.0535 40.4062C18.2867 39.7058 18.5485 38.815 18.8284 37.7825C19.3872 35.7209 19.9878 33.2089 20.5435 30.7561L20.6435 30.3137L20.3103 30.6214C18.464 32.3291 16.5888 34.1052 15.0829 35.62C14.3286 36.3786 13.688 37.0507 13.1981 37.6029C12.9534 37.8787 12.7604 38.1088 12.6163 38.2931C12.5448 38.3845 12.4914 38.4569 12.4531 38.5117C12.4163 38.5643 12.4017 38.5889 12.4017 38.5889C11.5732 40.0238 12.0651 41.8581 13.5 42.6865ZM41.0886 18.0981C42.5235 17.2696 43.0151 15.4349 42.1867 14C41.3583 12.5651 39.524 12.0732 38.0891 12.9017C38.0891 12.9017 38.0607 12.919 38.0119 12.9531C37.9571 12.9914 37.8846 13.0448 37.7933 13.1163C37.609 13.2604 37.3789 13.4534 37.1031 13.6981C36.5509 14.188 35.8788 14.8286 35.1202 15.5829C33.6054 17.0888 31.8293 18.964 30.1216 20.8103L29.8139 21.1435L30.2563 21.0435C32.7091 20.4878 35.221 19.8872 37.2826 19.3284C38.3152 19.0485 39.206 18.7867 39.9063 18.5535C40.2561 18.437 40.5383 18.3342 40.7553 18.2466C40.8629 18.2033 40.9453 18.1672 41.0059 18.139C41.0597 18.1138 41.0886 18.0981 41.0886 18.0981ZM34.5 6.31347C33.0651 5.48505 31.2306 5.97623 30.4022 7.41111C30.4022 7.41111 30.3882 7.43614 30.361 7.49427C30.3327 7.55485 30.2967 7.63733 30.2533 7.74485C30.1658 7.96188 30.063 8.24404 29.9465 8.59383C29.7132 9.29423 29.4515 10.185 29.1716 11.2175C28.6128 13.2791 28.0122 15.7911 27.4564 18.2439L27.3565 18.6863L27.6897 18.3786C29.536 16.6709 31.4112 14.8948 32.9171 13.38C33.6714 12.6214 34.3119 11.9493 34.8019 11.3971C35.0466 11.1213 35.2395 10.8912 35.3837 10.7069C35.4551 10.6155 35.5086 10.5431 35.5469 10.4883C35.5836 10.4357 35.5981 10.4116 35.5981 10.4116C36.4265 8.97667 35.9349 7.1419 34.5 6.31347ZM42 27.5C43.6569 27.5 45 26.1569 45 24.5C45 22.8431 43.6574 21.5 42.0005 21.5C42.0005 21.5 41.9718 21.5004 41.9079 21.506C41.8413 21.5117 41.7519 21.5218 41.6371 21.538C41.4053 21.5707 41.1096 21.6228 40.7484 21.6968C40.0252 21.8449 39.1229 22.0637 38.0888 22.3375C36.0239 22.8843 33.5482 23.6202 31.1461 24.3653L30.7131 24.5L31.1461 24.6347C33.5482 25.3798 36.0239 26.1157 38.0888 26.6625C39.1229 26.9363 40.0252 27.1551 40.7484 27.3032C41.1096 27.3772 41.4053 27.4293 41.6371 27.462C41.7519 27.4782 41.8413 27.4883 41.9079 27.4941C41.9674 27.4992 42 27.5 42 27.5ZM5.81329 13.9998C4.98486 15.4347 5.47649 17.2694 6.91137 18.0979C6.91137 18.0979 6.94018 18.1136 6.99409 18.1388C7.05466 18.1671 7.13715 18.2031 7.24466 18.2465C7.46169 18.334 7.74385 18.4368 8.09365 18.5533C8.79405 18.7865 9.68484 19.0483 10.7174 19.3282C12.779 19.887 15.2909 20.4876 17.7437 21.0434L18.1861 21.1433L17.8784 20.8101C16.1707 18.9638 14.3946 17.0886 12.8798 15.5827C12.1212 14.8284 11.4491 14.1878 10.8969 13.6979C10.6211 13.4532 10.391 13.2603 10.2067 13.1161C10.1154 13.0447 10.0429 12.9912 9.98814 12.9529C9.93937 12.9188 9.91131 12.9017 9.91131 12.9017C8.47644 12.0733 6.64172 12.5649 5.81329 13.9998ZM12.4019 10.4115C12.4019 10.4115 12.419 10.4396 12.4531 10.4883C12.4914 10.5431 12.5449 10.6155 12.6163 10.7069C12.7605 10.8912 12.9534 11.1213 13.1981 11.3971C13.6881 11.9493 14.3286 12.6214 15.0829 13.38C16.5888 14.8948 18.464 16.6709 20.3103 18.3786L20.6435 18.6863L20.5436 18.2439C19.9878 15.7911 19.3872 13.2791 18.8284 11.2175C18.5485 10.185 18.2868 9.29423 18.0535 8.59383C17.937 8.24404 17.8342 7.96187 17.7467 7.74484C17.7033 7.63733 17.6673 7.55485 17.639 7.49427C17.6138 7.44044 17.5978 7.41111 17.5978 7.41111C16.7694 5.97623 14.9349 5.48505 13.5 6.31347C12.0651 7.1419 11.5735 8.97667 12.4019 10.4115ZM42.1867 35.0002C43.0151 33.5653 42.5235 31.7305 41.0886 30.9021C41.0886 30.9021 41.0597 30.8863 41.0059 30.8612C40.9453 30.8329 40.8629 30.7969 40.7553 30.7535C40.5383 30.666 40.2561 30.5632 39.9063 30.4467C39.206 30.2134 38.3152 29.9517 37.2826 29.6718C35.221 29.1129 32.7091 28.5124 30.2563 27.9566L29.8139 27.8567L30.1216 28.1899C31.8293 30.0362 33.6054 31.9113 35.1202 33.4173C35.8788 34.1715 36.5509 34.8121 37.1031 35.3021C37.3789 35.5467 37.609 35.7397 37.7933 35.8839C37.8846 35.9553 37.9571 36.0087 38.0119 36.0471C38.0604 36.081 38.0886 36.0982 38.0886 36.0982C39.5235 36.9267 41.3583 36.435 42.1867 35.0002ZM30.4019 41.5884C31.2304 43.0233 33.0651 43.515 34.5 42.6865C35.9349 41.8581 36.4268 40.0238 35.5983 38.5889C35.5983 38.5889 35.5811 38.5606 35.5469 38.5117C35.5086 38.4569 35.4552 38.3845 35.3837 38.2931C35.2396 38.1088 35.0466 37.8787 34.8019 37.6029C34.312 37.0507 33.6714 36.3786 32.9171 35.62C31.4112 34.1052 29.536 32.3291 27.6897 30.6214L27.3565 30.3137L27.4565 30.7561C28.0122 33.2089 28.6128 35.7209 29.1716 37.7825C29.4515 38.815 29.7133 39.7058 29.9465 40.4062C30.063 40.756 30.1658 41.0381 30.2534 41.2552C30.2967 41.3627 30.3328 41.4452 30.361 41.5057C30.3863 41.5598 30.4019 41.5884 30.4019 41.5884ZM24 29C26.4853 29 28.5 26.9853 28.5 24.5C28.5 22.0147 26.4853 20 24 20C21.5147 20 19.5 22.0147 19.5 24.5C19.5 26.9853 21.5147 29 24 29Z" fill="#007BFF"/>
</svg>
