<svg width="37" height="37" viewBox="0 0 37 37" fill="none" xmlns="http://www.w3.org/2000/svg">
<path d="M25.4375 9.25C30.5461 9.25 34.6875 13.3914 34.6875 18.5C34.6875 23.6086 30.5461 27.75 25.4375 27.75H18.5011C21.3089 25.6405 23.125 22.2823 23.125 18.5C23.125 14.7177 21.3089 11.3595 18.5011 9.25H25.4375ZM11.5625 27.75C6.45387 27.75 2.3125 23.6086 2.3125 18.5C2.3125 13.3914 6.45387 9.25 11.5625 9.25C16.6711 9.25 20.8125 13.3914 20.8125 18.5C20.8125 23.6086 16.6711 27.75 11.5625 27.75ZM0 18.5C0 24.8858 5.17671 30.0625 11.5625 30.0625H25.4375C31.8233 30.0625 37 24.8858 37 18.5C37 12.1142 31.8233 6.9375 25.4375 6.9375H11.5625C5.17671 6.9375 0 12.1142 0 18.5Z" fill="#004494"/>
</svg>
