<svg width="28" height="28" viewBox="0 0 28 28" fill="none" xmlns="http://www.w3.org/2000/svg">
<path d="M2.29289 3.70711C1.90237 3.31658 1.90237 2.68342 2.29289 2.29289C2.68342 1.90237 3.31658 1.90237 3.70711 2.29289L14 12.5858L24.2929 2.29289C24.6834 1.90237 25.3166 1.90237 25.7071 2.29289C26.0976 2.68342 26.0976 3.31658 25.7071 3.70711L15.4142 14L25.7071 24.2929C26.0976 24.6834 26.0976 25.3166 25.7071 25.7071C25.3166 26.0976 24.6834 26.0976 24.2929 25.7071L14 15.4142L3.70711 25.7071C3.31658 26.0976 2.68342 26.0976 2.29289 25.7071C1.90237 25.3166 1.90237 24.6834 2.29289 24.2929L12.5858 14L2.29289 3.70711Z" fill="black" stroke="#0056B3" stroke-width="3" stroke-linecap="round" stroke-linejoin="round"/>
</svg>
