<svg width="33" height="32" viewBox="0 0 33 32" fill="none" xmlns="http://www.w3.org/2000/svg">
<path d="M32.5 16C32.5 24.8366 25.3366 32 16.5 32C7.66344 32 0.5 24.8366 0.5 16C0.5 7.16344 7.66344 0 16.5 0C25.3366 0 32.5 7.16344 32.5 16ZM24.5606 9.93934C23.9749 9.35355 23.0251 9.35355 22.4393 9.93934C22.4252 9.95349 22.4119 9.96847 22.3995 9.98421L15.4548 18.8335L11.2678 14.6464C10.682 14.0607 9.73222 14.0607 9.14643 14.6464C8.56065 15.2322 8.56065 16.182 9.14643 16.7678L14.4393 22.0607C15.0251 22.6464 15.9749 22.6464 16.5606 22.0607C16.5737 22.0476 16.586 22.0339 16.5975 22.0195L24.5819 12.0389C25.1463 11.4516 25.1392 10.5179 24.5606 9.93934Z" fill="#0056B3"/>
</svg>
