<svg width="38" height="24" viewBox="0 0 38 24" fill="none" xmlns="http://www.w3.org/2000/svg">
<path d="M30.875 13.2547C33.4984 13.2547 35.625 14.5419 35.625 16.1297V20.4422C35.625 22.03 33.4984 23.3172 30.875 23.3172H7.125C4.50165 23.3172 2.375 22.03 2.375 20.4422V16.1297C2.375 14.5419 4.50165 13.2547 7.125 13.2547H30.875ZM7.125 14.6922C5.81332 14.6922 4.75 15.3358 4.75 16.1297V20.4422C4.75 21.2361 5.81332 21.8797 7.125 21.8797H30.875C32.1867 21.8797 33.25 21.2361 33.25 20.4422V16.1297C33.25 15.3358 32.1867 14.6922 30.875 14.6922H7.125ZM30.875 0.3172C33.4984 0.3172 35.625 1.60438 35.625 3.1922V7.5047C35.625 9.09252 33.4984 10.3797 30.875 10.3797H7.125C4.50165 10.3797 2.375 9.09252 2.375 7.5047V3.1922C2.375 1.60438 4.50165 0.3172 7.125 0.3172H30.875ZM7.125 1.7547C5.81332 1.7547 4.75 2.39829 4.75 3.1922V7.5047C4.75 8.29861 5.81332 8.9422 7.125 8.9422H30.875C32.1867 8.9422 33.25 8.29861 33.25 7.5047V3.1922C33.25 2.39829 32.1867 1.7547 30.875 1.7547H7.125Z" fill="#0056B3"/>
<path d="M30.875 13.2547C33.4984 13.2547 35.625 14.5419 35.625 16.1297V20.4422C35.625 22.03 33.4984 23.3172 30.875 23.3172H7.125C4.50165 23.3172 2.375 22.03 2.375 20.4422V16.1297C2.375 14.5419 4.50165 13.2547 7.125 13.2547H30.875ZM7.125 14.6922C5.81332 14.6922 4.75 15.3358 4.75 16.1297V20.4422C4.75 21.2361 5.81332 21.8797 7.125 21.8797H30.875C32.1867 21.8797 33.25 21.2361 33.25 20.4422V16.1297C33.25 15.3358 32.1867 14.6922 30.875 14.6922H7.125ZM30.875 0.3172C33.4984 0.3172 35.625 1.60438 35.625 3.1922V7.5047C35.625 9.09252 33.4984 10.3797 30.875 10.3797H7.125C4.50165 10.3797 2.375 9.09252 2.375 7.5047V3.1922C2.375 1.60438 4.50165 0.3172 7.125 0.3172H30.875ZM7.125 1.7547C5.81332 1.7547 4.75 2.39829 4.75 3.1922V7.5047C4.75 8.29861 5.81332 8.9422 7.125 8.9422H30.875C32.1867 8.9422 33.25 8.29861 33.25 7.5047V3.1922C33.25 2.39829 32.1867 1.7547 30.875 1.7547H7.125Z" stroke="#0056B3"/>
</svg>
