<svg width="50" height="49" viewBox="0 0 50 49" fill="none" xmlns="http://www.w3.org/2000/svg">
<path d="M5.5 9.55566C4.67157 9.55566 4 10.2272 4 11.0557V17.0557H19C19.8284 17.0557 20.5 17.7272 20.5 18.5557C20.5 19.3156 20.7403 20.489 21.4173 21.4292C22.0392 22.293 23.0889 23.0557 25 23.0557C26.9111 23.0557 27.9608 22.293 28.5827 21.4292C29.2597 20.489 29.5 19.3156 29.5 18.5557C29.5 17.7272 30.1716 17.0557 31 17.0557H46V11.0557C46 10.2272 45.3284 9.55566 44.5 9.55566H5.5ZM46 20.0557H32.3468C32.1496 21.0558 31.7427 22.1747 31.0173 23.1821C29.8392 24.8184 27.8889 26.0557 25 26.0557C22.1111 26.0557 20.1608 24.8184 18.9827 23.1821C18.2573 22.1747 17.8504 21.0558 17.6532 20.0557H4V38.0557C4 38.8841 4.67157 39.5557 5.5 39.5557H44.5C45.3284 39.5557 46 38.8841 46 38.0557V20.0557ZM1 11.0557C1 8.57038 3.01472 6.55566 5.5 6.55566H44.5C46.9853 6.55566 49 8.57038 49 11.0557V38.0557C49 40.5409 46.9853 42.5557 44.5 42.5557H5.5C3.01472 42.5557 1 40.5409 1 38.0557V11.0557Z" fill="white" stroke="white" stroke-linejoin="round"/>
</svg>
